<?xml version="1.0" standalone="no"?>
<!DOCTYPE svg PUBLIC "-//W3C//DTD SVG 20010904//EN"
 "http://www.w3.org/TR/2001/REC-SVG-20010904/DTD/svg10.dtd">
<svg version="1.0" xmlns="http://www.w3.org/2000/svg"
 width="512.000000pt" height="512.000000pt" viewBox="0 0 512.000000 512.000000"
 preserveAspectRatio="xMidYMid meet">

<g transform="translate(0.000000,512.000000) scale(0.100000,-0.100000)"
fill="#000000" stroke="none">
<path d="M2370 5109 c-655 -75 -1213 -526 -1424 -1149 -68 -202 -80 -286 -81
-548 l0 -233 -25 -5 c-14 -3 -61 -17 -105 -31 -376 -120 -657 -445 -720 -836
-22 -135 -22 -1085 0 -1213 60 -347 278 -640 589 -789 85 -40 711 -243 866
-280 104 -25 269 -29 385 -11 55 8 213 49 350 90 1152 341 1119 333 1235 321
41 -4 171 -41 350 -100 306 -101 365 -115 474 -115 412 1 765 295 841 702 14
76 16 171 13 750 l-4 663 -27 100 c-81 289 -258 519 -512 664 -42 24 -131 63
-198 87 -75 26 -121 47 -119 55 2 6 3 87 3 178 0 249 -41 457 -132 669 -244
573 -770 962 -1394 1032 -105 11 -258 11 -365 -1z m397 -434 c527 -85 936
-485 1049 -1025 22 -105 25 -350 5 -460 -32 -180 -127 -400 -233 -545 -54 -74
-123 -143 -606 -613 -182 -177 -315 -298 -336 -307 -51 -22 -129 -19 -177 6
-37 18 -591 544 -811 770 -106 108 -174 202 -238 329 -187 371 -184 803 7
1173 182 351 530 606 917 671 110 19 311 19 423 1z m1461 -1899 c122 -42 191
-84 277 -171 59 -59 90 -100 117 -155 69 -140 69 -135 66 -853 l-3 -643 -38
-76 c-81 -166 -263 -266 -430 -238 -28 5 -167 48 -307 95 -140 47 -293 92
-339 100 -107 19 -255 19 -362 0 -46 -8 -374 -101 -729 -207 l-645 -192 -135
0 -135 0 -360 113 c-198 62 -383 124 -412 138 -169 79 -299 240 -348 428 -22
88 -22 1082 0 1170 60 231 235 408 458 465 l71 18 56 -112 c62 -124 126 -225
212 -332 66 -82 875 -871 947 -923 192 -139 440 -159 659 -51 73 37 106 63
280 229 401 383 741 726 801 809 68 93 154 243 197 345 16 37 29 67 29 67 1 0
34 -11 73 -24z"/>
<path d="M2451 4260 c-359 -50 -655 -326 -726 -679 -21 -101 -16 -293 9 -386
24 -91 108 -252 169 -326 105 -126 256 -225 422 -275 80 -24 106 -27 235 -27
129 0 155 3 235 27 288 87 504 306 587 593 19 66 23 102 23 228 0 166 -11 221
-70 352 -130 286 -412 478 -731 496 -49 3 -118 2 -153 -3z m214 -435 c84 -22
150 -61 205 -122 154 -169 154 -414 -1 -578 -87 -92 -185 -135 -309 -135 -124
0 -222 43 -309 135 -159 168 -155 422 9 586 111 112 256 152 405 114z"/>
</g>
</svg>
